<?xml version="1.0" encoding="UTF-8"?>
<!DOCTYPE svg PUBLIC "-//W3C//DTD SVG 1.0//EN" "http://www.w3.org/TR/2001/REC-SVG-20010904/DTD/svg10.dtd">
<!-- Creator: CorelDRAW 2018 (64-Bit) -->
<svg xmlns="http://www.w3.org/2000/svg" xml:space="preserve" width="73.3106mm" height="73.3106mm" version="1.0" style="shape-rendering:geometricPrecision; text-rendering:geometricPrecision; image-rendering:optimizeQuality; fill-rule:evenodd; clip-rule:evenodd"
viewBox="0 0 7331.06 7331.06"
 xmlns:xlink="http://www.w3.org/1999/xlink">
 <defs>
  <style type="text/css">
   <![CDATA[
    .fil0 {fill:#A0D9F6}
    .fil3 {fill:#163E8E}
    .fil4 {fill:#1D4EC2}
    .fil8 {fill:#1D53B8}
    .fil6 {fill:#242FA5}
    .fil1 {fill:#2C75FF}
    .fil2 {fill:#3137FD}
    .fil10 {fill:#3A6EE8}
    .fil7 {fill:#442EB5}
    .fil11 {fill:#5667E3}
    .fil9 {fill:#5E94FF}
    .fil12 {fill:#7A5CFF}
    .fil5 {fill:#8FA772}
   ]]>
  </style>
 </defs>
 <g id="Layer_x0020_1">
  <metadata id="CorelCorpID_0Corel-Layer"/>
  <g id="_2161064401712">
   <circle class="fil0" cx="3665.53" cy="3665.53" r="3665.53"/>
   <g>
    <path class="fil1" d="M3062.27 1459.84c0,333.18 270.07,603.25 603.25,603.25 121.26,0 234.19,-35.78 328.75,-97.34l49.56 -35.99c137.19,-110.57 224.95,-279.99 224.95,-469.92 0,-333.18 -270.07,-603.26 -603.26,-603.26 -112.04,0 -216.93,30.54 -306.82,83.75l-91.24 66.22c-125.81,110.55 -205.19,272.64 -205.19,453.29z"/>
    <path class="fil2" d="M3062.27 5871.22c0,333.18 270.07,603.26 603.25,603.26 121.26,0 234.19,-35.79 328.75,-97.35l49.56 -35.98c137.19,-110.57 224.95,-279.99 224.95,-469.93 0,-333.18 -270.07,-603.25 -603.26,-603.25 -112.04,0 -216.93,30.54 -306.82,83.75l-91.24 66.21c-125.81,110.55 -205.19,272.64 -205.19,453.29z"/>
    <path class="fil3" d="M4972.45 2562.68c0,333.18 270.07,603.25 603.25,603.25 121.26,0 234.18,-35.78 328.75,-97.35l49.56 -35.98c137.19,-110.57 224.95,-279.99 224.95,-469.92 0,-333.18 -270.08,-603.26 -603.26,-603.26 -112.04,0 -216.93,30.54 -306.83,83.75l-91.24 66.22c-125.8,110.55 -205.18,272.64 -205.18,453.29z"/>
    <path class="fil4" d="M1152.09 4768.38c0,333.18 270.08,603.26 603.26,603.26 121.26,0 234.18,-35.79 328.74,-97.35l49.56 -35.98c137.2,-110.57 224.95,-279.99 224.95,-469.93 0,-333.18 -270.07,-603.25 -603.25,-603.25 -112.05,0 -216.94,30.54 -306.83,83.75l-91.24 66.21c-125.8,110.55 -205.19,272.65 -205.19,453.29z"/>
    <path class="fil5" d="M5844.88 3102.7c-81.04,40.46 -172.45,63.23 -269.18,63.23 -333.17,0 -603.25,-270.08 -603.25,-603.25 0,-109.91 29.38,-212.94 80.72,-301.69 33.04,-57.11 75.19,-108.32 124.46,-151.6l45.62 -33.11 -245 141.45 -3222.9 1860.75 -225.54 130.22c69.67,-28.1 145.8,-43.57 225.54,-43.57 333.17,0 603.25,270.08 603.25,603.25 0,109.91 -29.38,212.94 -80.72,301.69 -29.95,51.75 -67.38,98.65 -110.78,139.21l176.65 -101.18 3231.95 -1851.21 269.18 -154.19z"/>
    <path class="fil6" d="M2358.6 2562.68c0,333.18 -270.07,603.25 -603.25,603.25 -121.26,0 -234.18,-35.78 -328.75,-97.35l-49.56 -35.98c-137.19,-110.57 -224.95,-279.99 -224.95,-469.92 0,-333.18 270.08,-603.26 603.26,-603.26 112.04,0 216.93,30.54 306.82,83.75l91.24 66.22c125.81,110.55 205.19,272.64 205.19,453.29z"/>
    <path class="fil7" d="M6178.96 4768.38c0,333.18 -270.08,603.26 -603.26,603.26 -121.26,0 -234.18,-35.79 -328.74,-97.35l-49.57 -35.98c-137.19,-110.57 -224.94,-279.99 -224.94,-469.93 0,-333.18 270.07,-603.25 603.25,-603.25 112.04,0 216.94,30.54 306.83,83.75l91.24 66.21c125.8,110.55 205.19,272.65 205.19,453.29z"/>
    <path class="fil8" d="M1486.17 3102.7c81.04,40.46 172.45,63.23 269.18,63.23 333.17,0 603.25,-270.08 603.25,-603.25 0,-109.91 -29.38,-212.94 -80.72,-301.69 -33.05,-57.11 -75.19,-108.32 -124.46,-151.6l-45.62 -33.11 245 141.45 3222.9 1860.75 225.54 130.22c-69.67,-28.1 -145.81,-43.57 -225.54,-43.57 -333.17,0 -603.25,270.08 -603.25,603.25 0,109.91 29.38,212.94 80.72,301.69 29.95,51.75 67.37,98.65 110.78,139.21l-176.65 -101.18 -3231.95 -1851.21 -269.18 -154.19z"/>
    <path class="fil9" d="M3665.52 4351l-1195.83 -684.95 -714.34 412.43 -225.54 130.22c69.67,-28.1 145.8,-43.57 225.54,-43.57 333.17,0 603.25,270.08 603.25,603.25 0,109.91 -29.38,212.94 -80.72,301.69 -29.95,51.75 -67.38,98.65 -110.78,139.21l176.65 -101.18 1321.77 -757.1z"/>
    <path class="fil10" d="M3665.52 2975.64l1195.84 690.41 714.34 -409.16 269.18 -154.19c-81.04,40.46 -172.45,63.23 -269.18,63.23 -333.17,0 -603.25,-270.08 -603.25,-603.25 0,-109.91 29.38,-212.94 80.72,-301.69 33.04,-57.11 75.19,-108.32 124.46,-151.6l45.62 -33.11 -245 141.45 -1312.73 757.91z"/>
    <path class="fil11" d="M2469.69 3666.05l1195.83 -690.41 -1312.72 -757.91 -244.96 -141.42 45.58 33.08c49.27,43.28 91.41,94.49 124.46,151.6 51.34,88.75 80.72,191.78 80.72,301.69 0,333.17 -270.08,603.25 -603.25,603.25 -96.73,0 -188.14,-22.77 -269.18,-63.23l269.18 154.19 714.34 409.16z"/>
    <path class="fil12" d="M4861.36 3666.05l-1195.84 684.95 1321.78 757.1 176.65 101.18c-43.41,-40.56 -80.83,-87.46 -110.78,-139.21 -51.34,-88.75 -80.72,-191.78 -80.72,-301.69 0,-333.17 270.08,-603.25 603.25,-603.25 79.73,0 155.87,15.47 225.54,43.57l-225.54 -130.22 -714.34 -412.43z"/>
   </g>
  </g>
 </g>
</svg>
